<?xml version="1.0" encoding="utf-8"?>
<!-- Generator: Adobe Illustrator 23.1.0, SVG Export Plug-In . SVG Version: 6.00 Build 0)  -->
<svg version="1.1" id="Layer_1" xmlns="http://www.w3.org/2000/svg" xmlns:xlink="http://www.w3.org/1999/xlink" x="0px" y="0px"
	 viewBox="0 0 1920 1080" style="enable-background:new 0 0 1920 1080;" xml:space="preserve">
<style type="text/css">
	.st0{fill:#FFFFFF;}
</style>
<g>
	<path class="st0" d="M582.33,247.96c0,0,6.22-19.56,25.78-20.15c0,0,21.63,0,27.85,20.15v193.48l-14.52,61.78
		c0,0-67.11-10.22-74.22,63.56c0,0-1.78,57.33,38.67,68.89c40.44,11.56,76-7.11,83.56-36.89l50.67,49.33l133.33,139.56
		c0,0,8.44,23.11-5.78,32.89s-26.22,6.67-30.22,4.89L681,684.11c0,0-68,47.11-139.56,4c-71.56-43.11-81.33-138.22-37.78-197.33
		c0,0,27.7-38.67,80-49.78L582.33,247.96z"/>
	<path class="st0" d="M626.78,438.33c0,0,78.22,6.51,108.89,89.25c30.67,82.75-36.89,147.63-36.89,147.63l-29.33-76.44
		c0,0,22.26-97.03-66.2-95.4L626.78,438.33z"/>
	<polygon class="st0" points="762.33,452.11 762.33,690.78 893,690.78 893,647.67 822.33,647.67 822.33,452.11 	"/>
	<rect x="919.22" y="452.11" class="st0" width="58.22" height="238.67"/>
	<polygon class="st0" points="1019.67,690.78 1079.67,690.78 1079.67,542.33 1176.11,690.78 1235.22,690.78 1235.22,452.11 
		1177,452.11 1177,601.44 1079.67,452.11 1019.67,452.11 	"/>
	<path class="st0" d="M1429.44,529.44h72c0,0-30.67-103.11-151.56-74.67c-120.89,28.44-120.89,239.56,40,239.56
		c0,0,88,2.67,111.56-91.56v-45.33h-130.67v44h68c0,0-9.78,44-63.11,38.67c-53.33-5.33-62.22-71.11-40.89-111.56
		c0,0,17.33-28.44,51.56-24.44C1420.56,508.11,1429.44,529.44,1429.44,529.44z"/>
</g>
</svg>
