<svg id="Layer_1" data-name="Layer 1" xmlns="http://www.w3.org/2000/svg" viewBox="0 0 1023.91 599.55"><defs><style>.cls-1{fill:#fb6726;}</style></defs><title>Untitled-1</title><path class="cls-1" d="M582.33,248s6.23-19.55,25.78-20.15c0,0,21.63,0,27.85,20.15V441.44l-14.52,61.78S554.33,493,547.22,566.78c0,0-1.78,57.33,38.67,68.89s76-7.11,83.55-36.89l50.67,49.33L853.44,787.67s8.45,23.11-5.77,32.89-26.23,6.66-30.23,4.88L681,684.11s-68,47.11-139.56,4-81.33-138.22-37.77-197.33c0,0,27.7-38.67,80-49.78Z" transform="translate(-477.54 -227.81)"/><path class="cls-1" d="M626.78,438.33s78.22,6.51,108.89,89.26-36.89,147.63-36.89,147.63l-29.34-76.44s22.26-97-66.2-95.41Z" transform="translate(-477.54 -227.81)"/><polygon class="cls-1" points="284.8 224.3 284.8 462.96 415.46 462.96 415.46 419.85 344.8 419.85 344.8 224.3 284.8 224.3"/><rect class="cls-1" x="441.68" y="224.3" width="58.22" height="238.67"/><polygon class="cls-1" points="542.13 462.96 602.13 462.96 602.13 314.52 698.57 462.96 757.68 462.96 757.68 224.3 699.46 224.3 699.46 373.63 602.13 224.3 542.13 224.3 542.13 462.96"/><path class="cls-1" d="M1429.44,529.44h72s-30.66-103.11-151.55-74.66-120.89,239.55,40,239.55c0,0,88,2.67,111.55-91.55V557.44H1370.78v44h68s-9.78,44-63.11,38.67-62.23-71.11-40.89-111.55c0,0,17.33-28.45,51.55-24.45S1429.44,529.44,1429.44,529.44Z" transform="translate(-477.54 -227.81)"/></svg>